<?xml version="1.0" encoding="UTF-8"?>
<svg id="Layer_2" data-name="Layer 2" xmlns="http://www.w3.org/2000/svg" viewBox="0 0 471.22 456.98">
  <defs>
    <style>
      .cls-1 {
        opacity: .3;
      }

      .cls-1, .cls-2, .cls-3, .cls-4, .cls-5, .cls-6, .cls-7, .cls-8, .cls-9, .cls-10, .cls-11, .cls-12, .cls-13, .cls-14, .cls-15, .cls-16, .cls-17, .cls-18 {
        stroke-width: 0px;
      }

      .cls-1, .cls-10, .cls-14, .cls-16 {
        isolation: isolate;
      }

      .cls-2, .cls-14 {
        fill: #ffcd15;
      }

      .cls-3 {
        fill: #e6e6e6;
      }

      .cls-4 {
        fill: #37474f;
      }

      .cls-5 {
        fill: #e0e0e0;
      }

      .cls-6 {
        fill: #f0f0f0;
      }

      .cls-7 {
        fill: #ffa8a7;
      }

      .cls-8 {
        fill: #fff;
      }

      .cls-9 {
        fill: #ffda66;
      }

      .cls-10 {
        opacity: .15;
      }

      .cls-11 {
        fill: #fafafa;
      }

      .cls-12 {
        fill: #f28f8f;
      }

      .cls-13 {
        fill: #d3a100;
      }

      .cls-14 {
        opacity: .1;
      }

      .cls-15 {
        fill: #263238;
      }

      .cls-16 {
        opacity: .4;
      }

      .cls-17 {
        fill: #191919;
      }

      .cls-18 {
        fill: #ba68c8;
      }
    </style>
  </defs>
  <g id="Layer_1-2" data-name="Layer 1">
    <g id="freepik--Floor--inject-63">
      <ellipse id="freepik--floor--inject-63" class="cls-6" cx="235.61" cy="320.95" rx="235.61" ry="136.03"/>
    </g>
    <g id="freepik--Shadow--inject-63">
      <path id="freepik--shadow--inject-63" class="cls-5" d="M370.92,368.15c-15.45-8.92-15.45-23.38,0-32.3s40.5-8.92,55.95,0,15.45,23.38,0,32.3-40.5,8.92-55.95,0Z"/>
      <path id="freepik--shadow--inject-63-2" data-name="freepik--shadow--inject-63" class="cls-5" d="M56.68,369.39l-40.64-23.46c-2.29-1.32-2.29-3.47,0-4.79l236.39-136.48c2.61-1.32,5.68-1.32,8.29,0l40.65,23.46c2.29,1.32,2.29,3.47,0,4.79l-236.39,136.48c-2.61,1.32-5.69,1.32-8.3,0Z"/>
    </g>
    <g id="freepik--Device--inject-63">
      <g id="freepik--device--inject-63">
        <path class="cls-18" d="M202.76,327.57l34.94-20.2c3.6-2.08,5.4-4.8,5.4-7.53v-4.86l-36.24-20.44c-2.05-1.33-3.35-3.56-3.48-6v-43.09l-61,35.26v43.07c.14,2.44,1.43,4.67,3.48,6l30.84,17.76c7.18,4.19,18.86,4.19,26.06.03Z"/>
        <path class="cls-13" d="M202.76,327.57l34.94-20.2c3.6-2.08,5.4-4.8,5.4-7.53v-4.86l-36.24-20.44c-2.05-1.33-3.35-3.56-3.48-6v-43.09l-61,35.26v43.07c.14,2.44,1.43,4.67,3.48,6l30.84,17.76c7.18,4.19,18.86,4.19,26.06.03Z"/>
        <path class="cls-1" d="M157.01,311.41v4.84l-11.18-6.45c-2.05-1.33-3.33-3.56-3.47-6v-43.09l11.62-6.71c.24,2.95.5,6,.75,9l-8.17,4.7v33.65c.13,2.44,1.43,4.67,3.48,6l6.97,4.06Z"/>
        <path class="cls-2" d="M146.56,301.36c.14,2.44,1.43,4.67,3.48,6l26.62,15.34c7.2,4.15,18.88,4.16,26.09,0l35-20.2c7.21-4.16,7.21-10.9,0-15.06l-26.64-15.34c-2.04-1.34-3.33-3.56-3.47-6v-33.66l-61,35.26-.08,33.66Z"/>
        <path class="cls-2" d="M146.56,302.69c.14,2.44,1.43,4.67,3.48,6l26.62,15.34c7.2,4.15,18.88,4.16,26.09,0l35-20.2c7.21-4.16,7.21-10.9,0-15.06l-26.64-15.34c-2.04-1.34-3.33-3.56-3.47-6v-33.66l-61,35.26-.08,33.66Z"/>
        <path class="cls-13" d="M218.16,276.21h0l-7.09-4.09c-2.04-1.34-3.33-3.56-3.47-6v-33.68l-61,35.26v33.66c.14,2.44,1.43,4.67,3.48,6l7,4,61.08-35.15Z"/>
        <path class="cls-18" d="M243.11,294.99v4.86c0,2.73-1.81,5.44-5.4,7.53l-35,20.19c-3.83,2.04-8.11,3.11-12.45,3.09v-4.84c4.34.02,8.62-1.05,12.45-3.09l35-20.21c3.59-2.07,5.4-4.8,5.4-7.53Z"/>
        <path class="cls-13" d="M243.11,294.99v4.86c0,2.73-1.81,5.44-5.4,7.53l-35,20.19c-3.83,2.04-8.11,3.11-12.45,3.09v-4.84c4.34.02,8.62-1.05,12.45-3.09l35-20.21c3.59-2.07,5.4-4.8,5.4-7.53Z"/>
        <path class="cls-18" d="M48.56,343.19c2.67,1.29,5.8,1.24,8.43-.15l236-136.25c2.57-1.67,4.18-4.47,4.35-7.53V8.34c-.09-2.98-1.6-5.73-4.06-7.41-2.67-1.29-5.8-1.23-8.42.16L48.86,137.38c-2.56,1.68-4.16,4.49-4.3,7.55v190.89c.09,2.95,1.57,5.69,4,7.37Z"/>
        <path class="cls-18" d="M57.02,343.03l236-136.25c2.57-1.67,4.19-4.47,4.35-7.53V8.34c0-2.77-1.95-3.9-4.35-2.51L57.02,142.08c-2.57,1.67-4.18,4.47-4.35,7.53v190.91c0,2.77,1.95,3.9,4.35,2.51Z"/>
        <path class="cls-13" d="M57.02,343.03l236-136.25c2.57-1.67,4.19-4.47,4.35-7.53V8.34c0-2.77-1.95-3.9-4.35-2.51L57.02,142.08c-2.57,1.67-4.18,4.47-4.35,7.53v190.91c0,2.77,1.95,3.9,4.35,2.51Z"/>
        <path class="cls-18" d="M56.38,347.99c-2.5,1.09-5.36,1.03-7.82-.16-2.43-1.69-3.92-4.43-4-7.39v-17.38l8.15,4.72v17.38c-.05,2.53,1.56,3.68,3.67,2.83Z"/>
        <path class="cls-13" d="M56.38,347.99c-2.5,1.09-5.36,1.03-7.82-.16-2.43-1.69-3.92-4.43-4-7.39v-17.38l8.15,4.72v17.38c-.05,2.53,1.56,3.68,3.67,2.83Z"/>
        <path class="cls-18" d="M52.66,327.78v17.38c0,2.77,2,3.89,4.35,2.51l236-136.25c2.56-1.67,4.17-4.44,4.35-7.49v-17.46L52.66,327.78Z"/>
        <path class="cls-2" d="M52.67,327.74v17.42c0,2.77,2,3.89,4.35,2.51l236-136.25c2.55-1.67,4.16-4.45,4.34-7.49v-17.46L52.67,327.74Z"/>
        <path class="cls-18" d="M60.82,305.93v-153.61c.09-1.84,1.06-3.52,2.6-4.52L286.56,18.93c1.44-.83,2.61-.16,2.61,1.5v153.69c-.1,1.84-1.07,3.52-2.61,4.52L63.43,307.48c-1.44.83-2.61.15-2.61-1.55Z"/>
        <path class="cls-17" d="M60.82,305.93v-153.61c.09-1.84,1.06-3.52,2.6-4.52L286.56,18.93c1.44-.83,2.61-.16,2.61,1.5v153.69c-.1,1.84-1.07,3.52-2.61,4.52L63.43,307.48c-1.44.83-2.61.15-2.61-1.55Z"/>
        <path class="cls-18" d="M175.01,262.66c-2.41,1.57-3.93,4.19-4.08,7.06,0,2.6,1.83,3.66,4.08,2.36,2.41-1.57,3.93-4.2,4.08-7.07,0-2.6-1.83-3.65-4.08-2.35Z"/>
        <path class="cls-13" d="M53.95,145.31c-.78,1.3-1.22,2.78-1.29,4.29v178.18l-8.1-4.72v-178.13c.05-1.52.49-3,1.28-4.3l8.11,4.68Z"/>
        <path class="cls-13" d="M297.32,7.62c-.31-2.24-2.12-3-4.31-1.79L57.01,142.08c-1.28.8-2.34,1.91-3.07,3.23l-8.16-4.71c.74-1.32,1.8-2.43,3.08-3.23L284.86,1.13c2.62-1.39,5.76-1.45,8.43-.16,2.24,1.53,3.71,3.95,4.03,6.65Z"/>
      </g>
    </g>
    <g id="freepik--Window--inject-63">
      <g id="freepik--window--inject-63">
        <g id="freepik--window--inject-63-2" data-name="freepik--window--inject-63">
          <g id="freepik--window--inject-63-3" data-name="freepik--window--inject-63">
            <path class="cls-18" d="M310.05,31.12c-.71-.36-1.57-.29-2.22.17L85.15,159.93c-1.78,1.18-2.9,3.14-3,5.27v152.67c-.06,1.05.43,2.05,1.29,2.65.49.27,3.11,1.79,3.89,2.21.56.29,1.23.25,1.76-.1l222.63-128.64c1.78-1.18,2.9-3.14,3-5.27V35.26c.09-.79-.27-1.57-.94-2-.5-.33-3.17-1.81-3.73-2.14Z"/>
            <path class="cls-11" d="M89.04,162.09L311.73,33.5c1.68-1,3-.18,3,1.76v153.46c-.1,2.13-1.22,4.09-3,5.27l-222.69,128.64c-1.68,1-3-.61-3-2.55v-152.72c.11-2.13,1.22-4.09,3-5.27Z"/>
            <path class="cls-5" d="M313.09,34.08h0c.59,0,.68.74.68,1.18v153.46c-.11,1.79-1.05,3.42-2.55,4.4l-222.66,128.64c-.15.1-.32.15-.5.16-.56,0-1-.86-1-1.84v-152.72c.1-1.79,1.02-3.42,2.5-4.43L312.23,34.36c.26-.17.55-.26.86-.28M313.09,33.08c-.48.02-.95.17-1.36.42L89.04,162.09c-1.78,1.18-2.89,3.14-3,5.27v152.72c0,1.54.86,2.84,2,2.84.35,0,.7-.11,1-.29l222.68-128.64c1.78-1.18,2.9-3.14,3-5.27V35.26c0-1.38-.68-2.18-1.68-2.18h.05Z"/>
            <path class="cls-6" d="M83.38,320.52c.33.17,2.7,1.52,3.74,2.12-.76-.63-1.17-1.58-1.12-2.56v-142.75l-3.9-2.28v142.82c-.07,1.05.42,2.05,1.28,2.65Z"/>
            <path class="cls-2" d="M314.77,35.23c0-1.92-1.37-2.7-3-1.73L89.04,162.09c-1.78,1.18-2.89,3.14-3,5.27v10L314.77,45.23v-10Z"/>
            <path class="cls-9" d="M311.73,33.5L89.04,162.08c-.89.56-1.63,1.34-2.14,2.27l-3.87-2.25c.51-.89,1.24-1.64,2.12-2.17L307.83,31.29c.65-.47,1.5-.54,2.22-.18.54.34,3.07,1.77,3.72,2.12-.68-.25-1.45-.15-2.04.27Z"/>
            <path class="cls-13" d="M82.1,175.06v-9.91c.04-1.08.36-2.13.93-3.05l3.88,2.24c-.56.9-.87,1.94-.91,3v10l-3.9-2.28Z"/>
          </g>
        </g>
        <path class="cls-18" d="M267.81,150.35l-133.37,77c-1.32.85-2.14,2.28-2.23,3.85v38.24c.09,1.57.91,3,2.23,3.85l3.89,2.24c1.4.71,3.06.71,4.46,0l133.35-77c1.32-.86,2.14-2.29,2.23-3.86v-38.25c-.09-1.57-.91-3-2.23-3.85l-3.9-2.24c-1.4-.7-3.04-.69-4.43.02Z"/>
        <path class="cls-9" d="M278.37,156.08c-.16-1.15-1.09-1.57-2.21-.92l-133.37,77c-.66.41-1.2.98-1.57,1.66l-8.35-4.82c.37-.67.91-1.23,1.56-1.64l133.38-77c1.4-.71,3.05-.71,4.45,0l3.9,2.24c1.2.79,2.01,2.06,2.21,3.48Z"/>
        <path class="cls-17" d="M142.41,275.72c-1.32.52-2.8.46-4.07-.18l-3.9-2.24c-1.31-.86-2.14-2.29-2.23-3.85v-38.24c.03-.78.26-1.54.66-2.21l8.35,4.82c-.41.66-.63,1.42-.66,2.19v38.25c0,1.27.8,1.86,1.85,1.46Z"/>
        <path class="cls-2" d="M142.79,232.16l133.37-77c1.23-.71,2.23-.14,2.23,1.28v38.25c-.09,1.57-.91,3-2.23,3.86l-133.35,77c-1.23.71-2.23.13-2.23-1.29v-38.24c.08-1.56.9-3,2.21-3.86Z"/>
        <path class="cls-17" d="M232.45,170.77l-98,56.59c-.65.41-1.19.97-1.56,1.64l8.35,4.82c.37-.68.91-1.25,1.57-1.66l98-56.58-8.36-4.81Z"/>
        <path class="cls-17" d="M240.79,175.58l-98,56.58c-1.32.86-2.14,2.29-2.23,3.86v38.23c0,1.42,1,2,2.23,1.29l98-56.58v-43.38Z"/>
        <path class="cls-2" d="M165.39,227.5l50.57-29.19c2.09-1.21,3.79-.35,3.79,1.92-.19,2.59-1.6,4.93-3.8,6.3l-50.56,29.2c-2.09,1.21-3.8.35-3.8-1.92.19-2.59,1.6-4.93,3.8-6.31Z"/>
        <path class="cls-11" d="M175.75,237.17s.1-.05.14,0c0,0,0,0,0,0,.04.07.07.15.06.23v5.69c0,.55-.05,1.1-.14,1.64-.08.49-.22.98-.42,1.44-.18.42-.41.82-.7,1.18-.28.33-.62.62-1,.83-.3.19-.64.3-1,.3-.27-.02-.53-.16-.7-.37-.22-.29-.36-.64-.42-1-.1-.48-.14-.98-.13-1.47v-5.7c0-.1.02-.2.06-.29.02-.08.08-.15.15-.2l.63-.37s.11-.04.15,0c.05.07.07.15.06.23v5.62c0,.31.02.62.09.92.03.19.11.37.24.52.09.11.23.17.37.16.17-.01.34-.07.48-.16.18-.11.34-.24.48-.39.16-.18.28-.38.38-.6.11-.26.2-.52.25-.8.06-.33.09-.66.08-1v-5.63c0-.1.03-.2.07-.29.02-.08.08-.15.15-.2l.66-.29Z"/>
        <path class="cls-11" d="M179.67,242.55c0-.07-.01-.15-.05-.21-.05-.05-.12-.08-.19-.07-.12-.02-.25-.02-.37,0l-.58.11c-.19.05-.38.05-.57,0-.15-.05-.27-.14-.36-.27-.1-.16-.16-.34-.19-.53-.1-.54-.1-1.08,0-1.62.08-.31.18-.61.32-.89.14-.28.3-.55.5-.8.19-.24.42-.44.68-.59.21-.13.45-.21.69-.24.18-.02.36.02.51.11.15.09.26.22.33.38.08.19.12.39.13.59.01.1-.01.2-.06.29-.02.08-.08.15-.15.2l-.6.35c-.06.03-.12.03-.18,0l-.13-.1c-.05-.04-.11-.07-.18-.07-.13.01-.25.06-.36.13-.16.09-.3.22-.41.36-.12.16-.18.35-.18.55-.01.08-.01.15,0,.23.04.06.1.09.17.1.11.02.22.02.33,0l.56-.1c.47-.09.79,0,1,.26.22.37.32.8.29,1.23,0,.3-.04.59-.12.88-.08.31-.19.61-.34.9-.15.3-.33.57-.55.82-.21.24-.45.45-.73.61-.22.14-.47.23-.73.25-.19,0-.37-.05-.53-.15-.15-.11-.27-.26-.34-.43-.08-.19-.12-.39-.12-.6,0-.1.01-.21.06-.3.02-.08.08-.15.15-.2l.6-.35c.08,0,.14-.05.18,0l.13.14c.05.06.13.1.21.1.14,0,.28-.04.39-.13.18-.1.34-.23.48-.39.07-.08.13-.17.17-.27.07-.08.12-.18.14-.28Z"/>
        <path class="cls-11" d="M181.71,239.84c0-.52.04-1.04.13-1.55.08-.48.21-.95.39-1.41.15-.41.35-.8.6-1.15.21-.3.48-.56.8-.75.23-.16.51-.22.79-.17.24.06.46.2.6.41.19.27.32.58.39.9.1.42.14.85.14,1.28v.62c0,.1-.02.21-.07.3-.02.08-.08.15-.15.2l-2.6,1.51c0,.18.02.35.07.52.04.11.11.21.2.29.08.07.19.1.29.09.12-.01.24-.06.34-.12.15-.08.29-.19.4-.32.1-.12.19-.24.26-.38.04-.08.09-.16.14-.23.04-.05.09-.09.15-.13l.62-.36s.11-.04.15,0c.05.06.08.15.06.23-.01.19-.05.39-.12.57-.09.28-.2.55-.34.8-.16.29-.34.57-.56.82-.22.26-.47.48-.76.65-.24.15-.52.22-.8.19-.25-.06-.46-.21-.6-.42-.2-.3-.33-.64-.39-1-.09-.46-.13-.92-.13-1.39ZM183.63,236.65c-.15.08-.29.2-.39.34-.11.14-.2.29-.27.46-.07.17-.13.34-.17.51-.04.16-.06.32-.07.48l1.76-1c-.01-.14-.03-.27-.06-.41-.02-.12-.06-.24-.14-.33-.06-.09-.15-.15-.26-.16-.14-.01-.28.03-.4.11h0Z"/>
        <path class="cls-11" d="M188.69,233.86c-.3.17-.54.44-.68.76-.16.42-.23.87-.21,1.32v3.61c0,.1-.02.21-.06.3-.02.08-.08.15-.15.2l-.59.34s-.1.05-.14,0c0,0,0,0,0,0-.04-.07-.07-.15-.06-.23v-6.47c0-.1.02-.2.06-.3.03-.08.08-.15.15-.2l.59-.34s.11-.04.15,0c.05.06.07.14.06.22v.32c.12-.27.27-.52.44-.76.16-.22.36-.4.6-.53l.36-.21s.1-.04.14,0c.05.07.07.15.07.23v.91c0,.1-.03.21-.07.3-.03.08-.07.15-.14.2l-.51.33Z"/>
        <path class="cls-11" d="M196.15,233.38s.1-.05.14,0c0,0,0,0,0,0,.04.07.07.15.06.23v1c0,.1-.02.2-.06.3-.03.07-.09.14-.15.19l-3.42,2s-.11.04-.15,0c-.04-.06-.07-.14-.06-.22v-9c0-.1.02-.2.06-.3.03-.08.08-.14.15-.19l.63-.37s.11-.04.15,0c.04.06.07.14.06.22v7.61l2.58-1.47Z"/>
        <path class="cls-11" d="M199.22,225.98c.23-.16.5-.23.77-.21.23.02.45.13.61.3.19.21.32.47.4.74.11.35.17.72.18,1.09v1.41c-.02.43-.08.87-.18,1.29-.09.41-.23.81-.4,1.2-.16.36-.36.69-.61,1-.21.28-.47.51-.77.69-.23.15-.5.22-.78.21-.23-.02-.45-.13-.6-.3-.19-.21-.33-.46-.4-.73-.11-.35-.17-.72-.18-1.09v-1.4c.01-.44.07-.87.17-1.3.1-.42.23-.82.41-1.21.16-.36.36-.69.6-1,.21-.28.48-.51.78-.69ZM200.16,228.56c0-.22-.04-.44-.11-.65-.04-.13-.11-.24-.22-.32-.09-.06-.19-.08-.29-.07-.11.02-.22.07-.32.13-.12.06-.23.15-.32.24-.11.12-.21.25-.29.4-.1.18-.17.38-.22.58-.07.26-.11.52-.12.78v1.25c0,.22.05.44.12.65.04.13.11.24.22.32.08.06.19.08.29.06.11-.02.22-.06.32-.12.12-.07.22-.15.32-.24.11-.12.21-.26.29-.4.1-.18.17-.38.22-.58.07-.26.1-.52.11-.78,0-.09,0-.19,0-.28v-.7c0-.09,0-.18,0-.27Z"/>
        <path class="cls-11" d="M204.24,231.83c.13-.08.24-.18.34-.29.12-.14.22-.3.31-.46.1-.2.18-.41.23-.63.06-.25.09-.5.09-.75v-.51c0,.1-.1.22-.17.36-.07.15-.15.29-.24.42-.1.14-.22.27-.34.4-.13.13-.27.24-.43.33-.21.14-.46.19-.71.14-.22-.07-.41-.21-.54-.41-.16-.26-.28-.54-.35-.84-.09-.38-.13-.76-.14-1.15v-.97c.01-.44.06-.88.14-1.31.08-.43.2-.84.35-1.25.14-.35.32-.69.54-1,.18-.28.43-.51.71-.68.13-.08.28-.14.43-.17.11-.02.23-.02.34,0,.09.02.17.07.24.13.06.05.12.11.17.17v-.32c0-.1.02-.2.06-.3.03-.08.08-.14.15-.19l.59-.35s.11-.04.15,0c.05.07.07.15.07.23v6.5c.03.97-.15,1.94-.53,2.84-.3.71-.81,1.3-1.46,1.7-.22.14-.48.22-.74.23-.21.01-.41-.04-.59-.15-.17-.13-.31-.29-.4-.48-.1-.23-.15-.47-.16-.72,0-.1.01-.21.06-.3.02-.08.08-.15.15-.2l.53-.3c.05-.05.13-.06.18,0,0,0,0,0,0,0,.05.05.09.11.13.17.06.11.16.19.28.22.12.09.3-.01.55-.11ZM203.3,226.98v.78c-.03.4.08.8.32,1.12.18.16.46.16.64,0,.29-.19.52-.46.65-.78.18-.42.28-.87.3-1.32v-1.06c.02-.36-.09-.71-.3-1-.18-.17-.47-.17-.65,0-.28.19-.51.46-.64.77-.21.47-.31.98-.32,1.49h0Z"/>
        <path class="cls-11" d="M208.56,218.1s.1-.03.14,0c.05.06.08.15.07.23v1.09c0,.1-.02.21-.07.3-.03.08-.08.14-.14.19l-.67.39s-.1.05-.14,0c0,0,0,0,0,0-.05-.06-.08-.14-.07-.22v-1.09c0-.1.02-.21.07-.3.03-.08.08-.14.15-.19l.67-.4ZM208.73,227.49c0,.1-.02.2-.06.29-.03.08-.08.15-.15.2l-.6.34s-.09.04-.13.01c0,0,0,0-.01-.01-.05-.06-.08-.15-.07-.23v-6.47c0-.1.02-.21.07-.3.03-.08.08-.15.14-.2l.6-.34s.11-.04.15,0c.04.06.07.14.06.22v6.49Z"/>
        <path class="cls-11" d="M213.99,224.44c0,.1-.02.2-.06.3-.03.08-.08.14-.15.19l-.6.35s-.1.04-.14,0c-.05-.06-.08-.15-.07-.23v-3.52c.03-.42-.04-.83-.22-1.21-.14-.25-.36-.29-.67-.11-.31.21-.54.51-.65.87-.17.47-.25.97-.24,1.47v3.53c0,.1-.02.2-.06.3-.02.08-.08.15-.15.2l-.59.34s-.1.05-.14,0c0,0,0,0,0,0-.05-.06-.07-.14-.06-.22v-6.47c0-.1.02-.21.06-.3.02-.08.08-.15.15-.2l.59-.34s.1-.05.14,0c0,0,0,0,0,0,.04.07.07.15.06.23v.31c.13-.3.29-.6.48-.87.16-.25.39-.46.65-.61.23-.17.51-.24.79-.2.22.06.41.21.52.41.15.27.24.57.28.87.05.4.08.8.08,1.2v3.71Z"/>
        <path class="cls-17" d="M264.43,195.33l-9.71,5.6,1.51-13.62c-1.17-.62-1.91-2.13-1.91-4.3,0-3.87,2.36-8.36,5.26-10s5.25.1,5.25,4c-.06,2.29-.71,4.53-1.9,6.5l1.5,11.82Z"/>
        <polygon class="cls-4" points="264.44 195.33 255.89 190.4 254.72 200.94 264.44 195.33"/>
        <path class="cls-4" d="M259.56,172.98c-2.11,1.43-3.69,3.52-4.48,5.95l7.83,4.52h0c1.19-1.97,1.84-4.21,1.9-6.5.02-3.87-2.33-5.64-5.25-3.97Z"/>
        <path class="cls-18" d="M212.36,127.63c-3.33-1.92-7.92-1.65-13,1.28-10.14,5.86-18.36,20.09-18.36,31.8,0,5.88,2.08,10,5.42,11.9l6.47,3.76c3.32,1.92,7.91,1.64,13-1.29,10.14-5.85,18.36-20.09,18.36-31.8,0-5.85-2.06-10-5.38-11.87"/>
        <path class="cls-2" d="M205.88,132.68c-10.14,5.86-18.36,20.1-18.36,31.8s8.22,16.46,18.36,10.6,18.37-20.09,18.36-31.8-8.23-16.45-18.36-10.6Z"/>
        <path class="cls-18" d="M216.01,158.66v1.34c-2.43,4.34-5.91,7.99-10.13,10.62-3.95,2.27-7.52,2.52-10.14,1.07v-2.76c.27-5.83,3.35-11.16,8.26-14.31l2.67-1.54c2.36-1.36,4.66-1.54,6.46-.49s2.88,3.26,2.88,6.07Z"/>
        <path class="cls-9" d="M212.36,127.63l6.5,3.78c-3.32-1.93-7.91-1.66-13,1.27-6.64,3.84-12.46,11.27-15.68,19.23l-6.51-3.77c3.23-8,9-15.39,15.68-19.23,5.1-2.92,9.69-3.2,13.01-1.28Z"/>
        <path class="cls-13" d="M192.66,176.22l-6.23-3.61c-3.34-1.9-5.42-6-5.42-11.9l6.51,3.78c.04,5.7,1.96,9.76,5.14,11.73Z"/>
        <path class="cls-2" d="M183.69,148.14l6.51,3.77c-1.67,3.99-2.56,8.25-2.64,12.57h0l-6.51-3.78c.08-4.32.98-8.58,2.64-12.56Z"/>
        <path class="cls-8" d="M203.56,152.45c-.62,0-1.23-.15-1.77-.46-1.32-.88-2.06-2.42-1.91-4,.17-3.7,2.13-7.08,5.24-9.08h0c1.69-1.35,4.16-1.07,5.51.62.68.86.98,1.96.81,3.04-.18,3.7-2.13,7.08-5.24,9.08-.79.5-1.7.77-2.64.8Z"/>
        <path class="cls-8" d="M213.13,152.58c-1.8-1.05-4.1-.87-6.46.49l-2.67,1.54c-4.91,3.15-7.99,8.49-8.26,14.32v2.77c2.62,1.45,6.19,1.2,10.14-1.07,4.22-2.63,7.7-6.28,10.13-10.62v-1.34c0-2.82-1.04-5.03-2.88-6.09Z"/>
      </g>
    </g>
    <g id="freepik--Plants--inject-63">
      <g id="freepik--plants--inject-63">
        <path class="cls-2" d="M418.71,325.58s1.33-11.68,7.14-20.75,13.79-14.72,21.24-15.31,13.47,6.27,5.5,11-22.13,9.51-28.65,27.11l-5.23-2.05Z"/>
        <path class="cls-14" d="M418.71,325.58s1.33-11.68,7.14-20.75,13.79-14.72,21.24-15.31,13.47,6.27,5.5,11-22.13,9.51-28.65,27.11l-5.23-2.05Z"/>
        <path class="cls-2" d="M420.9,322.54h-.08c-.2-.08-.3-.32-.22-.52,7.86-19.35,22.82-27.44,29.64-29,.22-.05.43.08.48.3.05.22-.08.43-.3.48h0c-6.68,1.54-21.35,9.48-29.08,28.53-.08.16-.26.25-.44.21Z"/>
        <path class="cls-2" d="M460.68,322.77c-.67,1.52-2.33,2.32-3.87,2.94s-3.22,1.29-4.06,2.73c-1.68,2.9,1.08,7-.72,9.81-.86,1.14-2.14,1.89-3.56,2.06-1.15.21-2.32.21-3.48.31-.56,0-1.11-.05-1.66-.13-1.62-.36-3.31-.18-4.81.51-2.31,1.3-3,4.21-4.42,6.46-1.76,2.68-4.59,4.46-7.77,4.88-1,.13-3,.32-4-.27-.08-.04-.15-.09-.22-.14h0c-.15-.16-.33-.37-.41-.48,0-.02,0-.05,0-.07-.41-1.51.26-3.07.29-4.63v-.28c-.07-1.81-.12-3.61-.16-5.41-.09-3.33-.12-6.67-.1-10,0-2.16-.24-4.52.68-6.55,1-2.24,3.52-2.29,4.47-4.48.38-.88.58-1.81.95-2.7,1.17-2.64,3.7-4.41,6.58-4.59,4.39-.22,8.32,3.33,12.71,3,1.13-.09,2.24-.44,3.36-.64,3.55-.67,7.66.34,9.66,3.35.89,1.26,1.09,2.88.54,4.32Z"/>
        <path class="cls-2" d="M421.26,344.45h0c-.2-.06-.31-.26-.26-.46,6.06-22.74,30-26,35.63-25.62.2.01.36.18.35.39,0,0,0,0,0,.01-.02.2-.2.35-.4.34-5.49-.39-28.93,2.82-34.86,25.08-.06.2-.26.31-.46.26Z"/>
        <path class="cls-2" d="M447.89,332.93c-.08-.01-.15-.05-.2-.1-4.48-3.88-10.46-5.57-16.31-4.59-.2.02-.38-.12-.42-.32-.03-.2.11-.39.31-.43,6.1-1.02,12.34.75,17,4.81.15.14.15.38,0,.52,0,0,0,0,0,0-.09.11-.24.15-.38.1Z"/>
      </g>
    </g>
    <g id="freepik--Clouds--inject-63">
      <g id="freepik--clouds--inject-63">
        <path class="cls-3" d="M363.68,50.93l3.18,1.22v-7c0-5.56,4.43-6.89,9.24-4.11h0c4.82,2.78,8.72,9.53,8.72,15.09v1c1.36-.41,2.83-.19,4,.62h0c3.7,2.42,6.03,6.45,6.27,10.87v.46l4.44,2.56c2.44,1.59,3.97,4.25,4.13,7.15,0,2.64-1.85,3.71-4.13,2.39l-35.85-20.71c-2.44-1.59-3.97-4.24-4.12-7.15,0-2.63,1.83-3.7,4.12-2.39Z"/>
        <path class="cls-3" d="M406.27,45.39l5.77,3.33c-.03-.25-.05-.51-.05-.76v-1.67c0-3,2.08-4.18,4.66-2.69,1.11.68,2.06,1.59,2.78,2.67.42-3.74,3.36-5.13,6.92-3.08,4.13,2.68,6.73,7.17,7,12.09v2.5c.03,1-.18,1.99-.59,2.9l4.8,2.76c1.52,1.01,2.47,2.67,2.56,4.49,0,1.65-1.16,2.32-2.59,1.5l-31.26-18c-1.53-1-2.5-2.67-2.59-4.5,0-1.69,1.16-2.36,2.59-1.54Z"/>
      </g>
    </g>
    <g id="freepik--Character--inject-63">
      <g id="freepik--character--inject-63">
        <path class="cls-7" d="M383.93,197.16c-4.2,7.1-8.24,13.27-11.08,16.23-5.39,2.5-18.05,6.36-23,7-.87.11-1.75-.1-2.48-.58-1.95-1.28-3.46-1.49-5.51-2.2-1.61-.55-2.29-1.32-2.59-1-.64.76-.57,1.89.17,2.55.77.73,1.62,1.37,2.54,1.9-2.2.54-4.49.59-6.7.12-4.29-1.13-6.31.93-3.41,5.59,1,1.66,5.12,4.33,13.4,3.61,2.95-.16,5.9-.49,8.81-1,7.94-1.7,16.77-3.34,22.2-5,2.02-.79,3.83-2.05,5.28-3.66,9.13-10.41,12.16-17.83,16.16-24.57l-.34-11c-6.48-.22-9.94,6.07-13.45,12.01Z"/>
        <path class="cls-17" d="M398.49,184.93c-3.83-.54-7.64,1.09-9.9,4.23-4.44,5.69-12.3,19.35-12.3,19.35,0,0,2.57,6.85,9.51,8l11.15-15.06s5.28-10.46,1.54-16.52Z"/>
        <rect class="cls-7" x="415.33" y="338.47" width="7.27" height="12.96"/>
        <polygon class="cls-7" points="397.4 337.78 390.14 338.04 389.77 324.32 397.4 324.06 397.4 337.78"/>
        <path class="cls-17" d="M423.62,226.28c0,7.22-1.06,65.39-1.06,65.39.16,2.08,2,5.92,1.63,13.91-.55,10.85-1.28,39.37-1.28,39.37-2.53,1.29-5.51,1.35-8.09.16,0,0-5.9-40-7.2-50.71-1.14-9.39-4.06-40.47-4.06-40.47l-3.93,36.74c.83,3.94,1.14,7.98.9,12-.34,5-2.68,30.88-2.68,30.88-2.54,1.5-5.64,1.75-8.39.67,0,0-4.14-39-4.22-43.58-.1-5.2,2.42-64.42,2.42-64.42l35.96.06Z"/>
        <path class="cls-15" d="M415.33,347.69v-1.08c-.7.31-2.31,6.73-5.2,9.47-2.29,2.18-5.41,4.69-6.21,7.12s4.35,3.92,6.5,3.53c2.48-.46,6.8-2.29,7.88-4s1.59-4.19,2.47-5.43,2.91-2.62,3.38-4.06c.15-1.35,0-2.71-.41-4-.34-1.34-.7-2.81-1.14-2.68v.82c-1.03.84-2.31,1.29-3.64,1.28-1.06.09-3.64-.13-3.63-.97Z"/>
        <path class="cls-15" d="M390.06,335.7c-.38,0-.69.57-1.52,1.51-1.23,1.3-2.68,2.38-4.27,3.2-2.72,1.42-8,3.6-10.41,4.73-1.5.7-1.43,2.58.12,3.65s5.28,1.84,9.76.8c2.44-.57,5.62-2.92,7.64-2.79s5.77.09,7.26-1,.89-3.35.47-5.3c-.46-2.14-1-5.47-1.71-5.32v.75c-.87,1.38-5.38,1.94-7.3.93l-.04-1.16Z"/>
        <path class="cls-15" d="M403.56,253.93c-3.78-1.24-7.24-3.3-10.12-6.05,0,0,2,3.81,7.76,7.36l-1.24,32.81,3.6-34.12Z"/>
        <path class="cls-2" d="M419.56,185.99s6,1.38,5.57,12.22l-1.25,17.25v25.9c-5.34,6.06-29,5.62-37.15-.48,0,0,.92-30.65,1.47-42.45.39-8.38,2.32-12.6,10.56-13.52l10.13.44,10.67.64Z"/>
        <path class="cls-17" d="M411.92,163.47c.14,6.07-4.66,11.11-10.74,11.26-.03,0-.06,0-.08,0-6,0-9.52-5.18-10.82-11.26-2.4-11.13,4.84-11.27,10.82-11.27,6.1.13,10.94,5.17,10.82,11.27Z"/>
        <path class="cls-17" d="M417.44,168.02s-1.66,8.12-2.33,9.46c-.42.81-1.14,1.42-2,1.71l.12-5.71,4.21-5.46Z"/>
        <path class="cls-17" d="M415.35,156.39s1.19-.3,2.46,1.68c1.08,1.69,1.33,5.49-.37,10l-3.13.38,1.04-12.06Z"/>
        <path class="cls-17" d="M416.5,158.04l3.84.07c.11-.99-.62-1.89-1.61-1.99-.05,0-.09,0-.14,0-1.09.02-1.99.85-2.09,1.93Z"/>
        <path class="cls-17" d="M416.97,157.13l2.84-2.73c-.65-.77-1.81-.87-2.58-.21-.04.03-.08.07-.11.1-.78.76-.85,2-.15,2.84Z"/>
        <path class="cls-7" d="M413.37,168.4c.63.39,1.52-.86,2.3-1.71s3.2-1.63,4.46,1.13-.89,5.49-2.69,6.39c-3.23,1.6-4.25-.73-4.25-.73l-.27,12.86c-4.54,7-14.84,6.78-11.13-.34v-3.91c-1.53.25-3.08.33-4.62.24-2.52-.4-4.1-2.47-4.87-5.31-1.22-4.56-1.69-8.24-.65-17.21,1.14-9.82,12.12-9.93,18-6s3.72,14.59,3.72,14.59Z"/>
        <path class="cls-17" d="M399.69,158.28c2.62-.26,5.21-.8,7.84-1,.57-.07,1.14-.04,1.7.08,2,.55,1.76,2.89,2.08,4.52.55,2.82,1,7.59,2.06,7.61.32,0,1.52-2.07,2.3-2.81.43-.64.67-1.38.7-2.15.2-1.16.3-2.35.39-3.53.08-1,.18-2,.18-3,.05-1.13-.04-2.26-.27-3.37-.25-.94-.73-1.81-1.4-2.52l-.2-.22c-1.32-1.38-2.92-2.46-4.69-3.16-2.55-.96-5.22-1.54-7.94-1.73-2.71-.19-5.41-.53-8.09-1-.15-.04-.32-.04-.47,0-.22.12-.36.35-.38.6-.22,1.27.3,2.55,1.35,3.3-1.81.14-3.89-.8-5.63-1.28-.28-.12-.61-.12-.89,0-.17.12-.3.3-.35.51-.13.47-.14.96-.05,1.44.16,1.45.7,2.83,1.56,4,1.35,1.75,3.25,3,5.4,3.53,1.58.3,3.2.37,4.8.18Z"/>
        <path class="cls-12" d="M401.8,182.09s5.62-1.18,7.58-2.27c1.17-.64,2.12-1.61,2.72-2.8-.3,1.19-.82,2.31-1.55,3.3-1.43,1.92-8.75,3.32-8.75,3.32v-1.55Z"/>
        <path class="cls-15" d="M403.15,166.93c-.02.64.48,1.18,1.12,1.21.67.06,1.26-.44,1.32-1.12s-.44-1.26-1.12-1.32-1.26.44-1.32,1.12c0,.04,0,.07,0,.11Z"/>
        <path class="cls-15" d="M404.95,162.08l2.41,1.39c.36-.71.12-1.58-.56-2-.64-.36-1.44-.13-1.8.51-.02.03-.04.07-.05.1Z"/>
        <path class="cls-12" d="M402.3,175.04l-2.57,1c.21.71.95,1.12,1.66.91.03,0,.06-.02.09-.03.73-.31,1.08-1.14.82-1.88Z"/>
        <path class="cls-15" d="M392.81,163.11l2.2-1.76c-.39-.6-1.19-.78-1.8-.39-.04.03-.08.05-.11.08-.61.52-.73,1.41-.29,2.07Z"/>
        <path class="cls-15" d="M393.78,166.6c.05.62.59,1.09,1.22,1.04.62-.05,1.09-.59,1.04-1.22-.05-.59-.54-1.04-1.12-1.04-.65.02-1.15.56-1.13,1.21,0,0,0,0,0,.01Z"/>
        <polygon class="cls-12" points="399.81 165.66 399.68 172.77 395.64 171.85 399.81 165.66"/>
        <polyline class="cls-18" points="303.87 225.21 310.14 221.59 312.62 218.58 306.36 222.2 303.87 225.21"/>
        <polyline class="cls-16" points="303.87 225.21 310.14 221.59 312.62 218.58 306.36 222.2 303.87 225.21"/>
        <polyline class="cls-18" points="320.92 235.05 327.19 231.43 332.42 226.8 326.16 230.41 320.92 235.05"/>
        <polyline class="cls-16" points="320.92 235.05 327.19 231.43 332.42 226.8 326.16 230.41 320.92 235.05"/>
        <path class="cls-18" d="M374.18,247.54c1.48,1.99,2.38,4.35,2.59,6.82-1.48-1.99-2.37-4.35-2.59-6.82ZM388.75,247.73c-2.11-14.35-9.82-28.54-19-33.85-4.41-2.55-8.49-2.64-11.76-.73l-5.9,3.4-.33.2c-.26.14-.52.3-.76.48-.48.33-.94.71-1.36,1.12l-.2.19c-.18.18-.37.39-.54.59s-.43.51-.63.78c-.42.56-.81,1.15-1.15,1.76-.18.31-.35.64-.51,1l-51.53-29.74-6.26,3.61v4l.53.3.5.29v.8l-1,.59v2.32l7.57,16,7.48,4.33,2.49-3,6.6,3.95,3.79,6.49,4.18,2.41,5.23-4.64,6.42,3.71,2.16,8.91,10.79,6.24c.53,2.27,1.2,4.5,2,6.69.07.22.16.45.25.7,3.58,9.4,9.27,17.45,15.69,21.16.77.46,1.58.85,2.41,1.17.44.18.89.33,1.35.45.4.11.8.2,1.2.27,1.26.23,2.56.23,3.82,0l.52-.13c.25-.05.49-.12.73-.21l.56-.22c.2-.07.39-.16.57-.27.18-.08.37-.17.54-.27l.26-.16s.09-.04.13-.07c1.43-.82,4.95-2.86,5.91-3.4,4.76-2.76,7.84-9.74,7.84-19.61,0-2.55-.21-5.09-.59-7.61Z"/>
        <path class="cls-13" d="M372.35,259.65c-2.48-1.43-4.48-5.67-4.48-9.47s2-5.73,4.48-4.31,4.47,5.67,4.47,9.48-2,5.73-4.47,4.3ZM382.48,251.34c-2.1-14.34-9.81-28.54-19-33.84-4.26-2.46-8.2-2.64-11.4-.95l-.33.2c-.26.14-.52.3-.76.48-.48.33-.94.71-1.36,1.12l-.2.19c-.18.18-.37.39-.54.59s-.43.51-.63.78c-.42.56-.81,1.15-1.15,1.76-.18.31-.35.64-.51,1-.93,1.93-1.6,3.98-2,6.09l-55.79-32.22v4l.53.3.5.29v.8l-1,.59v2.32l7.57,16,7.48,4.33,2.49-3,6.6,3.95,3.79,6.49,4.18,2.41,5.23-4.64,6.42,3.71,2.16,8.91,10.8,6.24c.53,2.27,1.2,4.5,2,6.69.07.22.16.45.25.7,3.58,9.4,9.27,17.45,15.69,21.16.77.46,1.58.85,2.41,1.17.44.18.89.33,1.35.45.4.11.8.2,1.2.27,1.26.23,2.56.23,3.82,0l.52-.13c.25-.05.49-.12.73-.21l.56-.22c.2-.07.39-.16.57-.27.18-.08.37-.17.54-.27l.26-.16s.09-.04.13-.07c4.56-2.88,7.49-9.76,7.49-19.39-.02-2.55-.22-5.1-.6-7.62Z"/>
        <path class="cls-2" d="M376.82,255.34c0,3.81-2,5.74-4.47,4.31s-4.48-5.66-4.48-9.47,2-5.74,4.48-4.31c.71.43,1.34,1.01,1.83,1.68.21,2.47,1.11,4.83,2.59,6.82.04.32.05.65.05.97Z"/>
        <path class="cls-2" d="M389.32,255.33c0,9.87-3.08,16.85-7.84,19.61-1,.54-4.48,2.58-5.91,3.4,4.56-2.88,7.49-9.76,7.49-19.39-.01-2.55-.2-5.09-.58-7.61-2.1-14.34-9.81-28.54-19-33.84-4.26-2.46-8.2-2.64-11.4-.95l5.9-3.4c3.27-1.91,7.35-1.82,11.76.73,9.19,5.31,16.9,19.5,19,33.85.38,2.52.57,5.06.58,7.6Z"/>
        <path class="cls-18" d="M383.06,258.93c0,9.63-2.93,16.51-7.49,19.39,1.43-.82,4.95-2.86,5.91-3.4,4.76-2.76,7.84-9.74,7.84-19.61v-1.1l-6.26,3.62c-.01.39,0,.75,0,1.1Z"/>
        <path class="cls-13" d="M383.06,258.93c0,9.63-2.93,16.51-7.49,19.39,1.43-.82,4.95-2.86,5.91-3.4,4.76-2.76,7.84-9.74,7.84-19.61v-1.1l-6.26,3.62c-.01.39,0,.75,0,1.1Z"/>
        <polygon class="cls-10" points="344.84 232.85 344.84 234.88 288.82 202.54 289.85 201.94 289.85 201.1 344.84 232.85"/>
        <polygon class="cls-10" points="344.84 233.69 344.84 234.88 288.82 202.54 289.85 201.94 289.85 201.93 344.84 233.69"/>
        <path class="cls-10" d="M369.2,274.93c-2.12-.06-4.19-.67-6-1.79-9.13-5.27-16.56-20.95-16.56-34.95,0-8.17,2.47-14.27,6.78-16.76,3-1.74,6.55-1.52,10.28.63,9.12,5.27,16.55,21,16.55,35,0,8.16-2.47,14.27-6.78,16.75-1.3.74-2.77,1.13-4.27,1.12ZM357.75,221.28c-1.33,0-2.64.34-3.8,1-3.93,2.27-6.28,8.22-6.28,15.9,0,13.68,7.2,29,16.06,34.08,3.39,2,6.6,2.18,9.27.64,3.93-2.27,6.28-8.21,6.28-15.89,0-13.69-7.2-29-16.05-34.09-1.65-1.01-3.54-1.56-5.48-1.6v-.04Z"/>
        <path class="cls-2" d="M346.56,222.65c-.93,1.93-1.6,3.98-2,6.09l-55.79-32.22,6.26-3.61,51.53,29.74Z"/>
        <path class="cls-7" d="M419.07,225.78c2.92-5.53,6.26-17.95,7.92-24.22,2.36-8.9-1.46-14.5-5.8-14.73-2.71.42-11.64,32.89-11.64,32.89-1,.79-14.57,7.68-18.93,9.41-.78.29-1.64.29-2.42,0-2.09-.76-3.52-.62-5.57-.82-1.61-.16-2.42-.73-2.63-.39-.4.88-.05,1.91.79,2.37.88.51,1.82.92,2.8,1.22-1.75.53-3.58.78-5.41.73-4.2-.09-5.71,1.73-2.45,6,2,2.66,5.31,3.5,12.7.95,2.12-.74,5-2.17,7.69-3.14,5.54-2,7-2.24,11.22-3.67,6.15-2.08,10.43-4.14,11.73-6.6Z"/>
        <path class="cls-17" d="M419.56,185.99c2.55.35,5,.92,6.51,3s2.72,5,1.24,12.95c-1.13,5.59-2.65,11.1-4.54,16.48,0,0-5.94,2.54-12.25-3.9l4.34-16.78s.7-10.91,4.7-11.75Z"/>
      </g>
    </g>
  </g>
</svg>